<svg xmlns="http://www.w3.org/2000/svg" width="96" height="38" viewBox="0 0 96 38">
  <g>
    <path d="M66.328 1.121C54.161-.205 41.842-.205 29.711 1.121 18.299 2.37 10.018 10.691 10.019 20.909L10.02 22.027C10.15 30.758 16.826 37.874 24.902 37.874 31.09 37.874 36.699 33.652 38.856 27.368 40.178 23.516 43.645 21.027 47.687 21.027L48.349 21.027C52.392 21.027 55.858 23.516 57.18 27.368 59.337 33.652 64.946 37.874 71.135 37.874 79.343 37.874 86.02 30.64 86.02 21.747L86.02 20.893C86.013 10.68 77.731 2.364 66.328 1.121zM24.681 34.443C18.25 34.443 13.02 29.212 13.02 22.782 13.02 22.33 13.046 21.874 13.099 21.427L15.085 21.659C15.041 22.029 15.02 22.407 15.02 22.782 15.02 28.109 19.354 32.443 24.681 32.443 25.7 32.443 26.709 32.282 27.682 31.964L28.302 33.866C27.129 34.249 25.91 34.443 24.681 34.443zM81.971 19.022L79.98 18.838C80.007 18.546 80.02 18.253 80.02 17.96 80.02 12.862 76.035 8.627 70.947 8.316L71.07 6.32C77.211 6.694 82.02 11.807 82.02 17.96 82.02 18.314 82.003 18.67 81.971 19.022zM92.04 17.121L87.656 17.121C87.885 18.346 88.018 19.602 88.019 20.892L88.019 21.747C88.019 22.901 87.908 24.026 87.714 25.121L92.039 25.121C93.695 25.121 95.042 23.774 95.042 22.119L95.042 20.124C95.043 18.468 93.696 17.121 92.04 17.121zM3.96 17.121C2.304 17.121.957 18.468.957 20.124L.957 22.119C.957 23.774 2.304 25.121 3.96 25.121L8.331 25.121C8.152 24.119 8.035 23.094 8.019 22.042L8.018 20.909C8.018 19.614 8.151 18.351 8.381 17.121L3.96 17.121z"/>
  </g>
</svg>
